# xmcd
#
# Track frame offsets:
# 150
# 12640
# 28724
# 45393
# 60634
# 74122
# 89604
# 101567
# 113354
# 128274
# 145188
# 162378
# 173942
#
# Disc length: 2552 seconds
#
#
# Revision: 6
# Processed by: cddbd v1.4PL0 Copyright (c) Steve Scherf et al.
# Submitted via: FreeRIP 2.52 
#
DISCID=ae09f60d
DTITLE=Rio Negro and Solimões - Ensaio Acústico
DYEAR=2002
DGENRE=Sertanejo
TTITLE0=Rodopiou
TTITLE1=Tô Por Aí
TTITLE2=Estrela Guia
TTITLE3=Meus Pecados
TTITLE4=Ainda Ontem Chorei de Saudade
TTITLE5=Medo da Chuva
TTITLE6=Sapatiô, Sapatiô
TTITLE7=Carro Velho
TTITLE8=Tô Indo Embora
TTITLE9=Chumbo Trocado
TTITLE10=Como Te Esquecer
TTITLE11=Quarto Triste
TTITLE12=Porta do Mundo
EXTD=by Clayton
EXTT0=
EXTT1=
EXTT2=
EXTT3=
EXTT4=
EXTT5=
EXTT6=
EXTT7=
EXTT8=
EXTT9=
EXTT10=
EXTT11=
EXTT12=
PLAYORDER=
